<?xml version="1.0" encoding="UTF-8" standalone="no"?>
<svg
   xmlns:dc="http://purl.org/dc/elements/1.1/"
   xmlns:cc="http://creativecommons.org/ns#"
   xmlns:rdf="http://www.w3.org/1999/02/22-rdf-syntax-ns#"
   xmlns:svg="http://www.w3.org/2000/svg"
   xmlns="http://www.w3.org/2000/svg"
   xmlns:sodipodi="http://sodipodi.sourceforge.net/DTD/sodipodi-0.dtd"
   xmlns:inkscape="http://www.inkscape.org/namespaces/inkscape"
   inkscape:version="1.0 (1.0+r73+1)"
   height="64"
   width="64"
   sodipodi:docname="errorcadas.svg"
   xml:space="preserve"
   viewBox="0 0 63.999996 63.999996"
   y="0px"
   x="0px"
   id="Capa_1"
   version="1.1"><metadata
   id="metadata51"><rdf:RDF><cc:Work
       rdf:about=""><dc:format>image/svg+xml</dc:format><dc:type
         rdf:resource="http://purl.org/dc/dcmitype/StillImage" /><dc:title></dc:title></cc:Work></rdf:RDF></metadata><defs
   id="defs49" /><sodipodi:namedview
   inkscape:current-layer="Capa_1"
   inkscape:window-maximized="1"
   inkscape:window-y="27"
   inkscape:window-x="53"
   inkscape:cy="220.43364"
   inkscape:cx="239.14703"
   inkscape:zoom="1.0000191"
   fit-margin-bottom="0"
   fit-margin-right="0"
   fit-margin-left="0"
   fit-margin-top="0"
   showgrid="false"
   id="namedview47"
   inkscape:window-height="704"
   inkscape:window-width="1313"
   inkscape:pageshadow="2"
   inkscape:pageopacity="0"
   guidetolerance="10"
   gridtolerance="10"
   objecttolerance="10"
   borderopacity="1"
   bordercolor="#666666"
   pagecolor="#ffffff" />
<path
   id="path2"
   d="M 50.239809,17.450499 C 48.014831,5.6306761 37.445497,-1.9794484 26.632677,0.4527433 17.373844,2.5354697 10.715649,11.423417 10.673173,21.756339 c 0,0.492311 0.01862,0.996366 0.05859,1.529509 C 4.1449026,24.048007 -0.62961851,30.502806 0.06760799,37.703105 0.71386362,44.376951 5.8662937,49.439761 12.00566,49.433206 h 1.3992 c -0.03198,-0.48357 -0.06659,-0.964273 -0.06659,-1.45672 0,-10.458425 7.755942,-18.936818 17.323474,-18.936818 9.567531,0 17.323349,8.478393 17.323349,18.936818 0,0.49231 -0.03461,0.973013 -0.06659,1.45672 h 1.3992 c 8.086628,0.02417 14.660121,-7.12232 14.682233,-15.962197 0.02124,-8.482081 -6.014562,-15.50949 -13.760135,-16.02051 z"
   style="fill:#bbdefb;stroke-width:0.130616" />
<ellipse
   ry="16.023378"
   rx="14.658247"
   id="circle4"
   cy="47.976486"
   cx="30.661749"
   style="fill:#4caf50;stroke-width:0.130616" />
<g
   transform="matrix(0.1249286,0,0,0.13656327,2.362027e-5,-2.980184)"
   id="g10">
	<path
   id="path6"
   d="m 288.1,426.47 c -2.831,0.005 -5.548,-1.115 -7.552,-3.115 l -85.333,-85.333 c -4.092,-4.237 -3.975,-10.99 0.262,-15.083 4.134,-3.992 10.687,-3.992 14.82,0 l 85.333,85.333 c 4.159,4.172 4.149,10.926 -0.024,15.085 -1.992,1.988 -4.69,3.106 -7.506,3.113 z"
   style="fill:#fafafa" />
	<path
   id="path8"
   d="m 202.767,426.47 c -5.891,0.011 -10.675,-4.757 -10.686,-10.648 -0.005,-2.84 1.123,-5.565 3.134,-7.571 l 85.333,-85.333 c 4.237,-4.092 10.99,-3.975 15.083,0.262 3.992,4.134 3.992,10.687 0,14.82 l -85.333,85.333 c -1.996,2.002 -4.704,3.13 -7.531,3.137 z"
   style="fill:#fafafa" />
</g>
<path
   style="stroke-width:0.130616"
   id="path12"
   d="m 49.317711,49.433206 c -0.735955,0 -1.332613,-0.652226 -1.332613,-1.45672 0,-0.804494 0.596658,-1.45672 1.332613,-1.45672 6.623589,0 11.993145,-5.869626 11.993145,-13.110074 0,-7.240448 -5.369556,-13.110073 -11.993145,-13.110073 C 48.607492,20.333486 47.97173,19.821647 47.790584,19.07014 46.362525,8.7288869 37.535695,1.6112095 28.075352,3.1722642 19.650667,4.5624782 13.401489,12.442998 13.338275,21.756339 c 0.0067,0.914155 0.07446,1.826534 0.202509,2.729763 0.05397,0.420888 -0.06284,0.846419 -0.319817,1.165294 -0.27022,0.302352 -0.636886,0.478791 -1.023415,0.492311 -0.05859,0 -0.223872,-0.01748 -0.282464,-0.02909 -5.1546783,0.02731 -9.3130516,4.617341 -9.2880659,10.252077 0.024986,5.634737 4.2239608,10.180382 9.3786399,10.15307 0.735954,0 1.332613,0.652226 1.332613,1.45672 0,0.804494 -0.596659,1.45672 -1.332613,1.45672 C 5.3820725,49.440171 0.00739441,43.576281 8.9812006e-4,36.335833 -0.00497352,29.624705 4.6263794,23.992289 10.73164,23.285984 10.69166,22.752841 10.67305,22.248786 10.67305,21.756476 10.72402,9.6890632 19.714508,-0.04817076 30.753823,0.00754705 40.205546,0.05534419 48.334775,7.3334834 50.239811,17.453504 c 8.070512,0.55909 14.198385,8.164025 13.686927,16.986285 -0.488596,8.428002 -6.883441,14.991096 -14.609025,14.993417 z" />
<path
   style="stroke-width:0.130616"
   id="path14"
   d="m 30.661749,64 c -8.095498,0 -14.658247,-7.173941 -14.658247,-16.023378 0,-8.849436 6.562749,-16.023377 14.658247,-16.023377 8.095498,0 14.658247,7.173941 14.658247,16.023377 C 45.309756,56.821415 38.752999,63.988665 30.661749,64 Z m 0,-29.133588 c -6.623589,0 -11.993145,5.869626 -11.993145,13.110074 0,7.240448 5.369556,13.110073 11.993145,13.110073 6.623589,0 11.993145,-5.869625 11.993145,-13.110073 0,-7.240448 -5.369556,-13.110074 -11.993145,-13.110074 z" />
<g
   transform="translate(1.8911308e-4,-21.822736)"
   id="g16">
</g>
<g
   transform="translate(1.8911308e-4,-21.822736)"
   id="g18">
</g>
<g
   transform="translate(1.8911308e-4,-21.822736)"
   id="g20">
</g>
<g
   transform="translate(1.8911308e-4,-21.822736)"
   id="g22">
</g>
<g
   transform="translate(1.8911308e-4,-21.822736)"
   id="g24">
</g>
<g
   transform="translate(1.8911308e-4,-21.822736)"
   id="g26">
</g>
<g
   transform="translate(1.8911308e-4,-21.822736)"
   id="g28">
</g>
<g
   transform="translate(1.8911308e-4,-21.822736)"
   id="g30">
</g>
<g
   transform="translate(1.8911308e-4,-21.822736)"
   id="g32">
</g>
<g
   transform="translate(1.8911308e-4,-21.822736)"
   id="g34">
</g>
<g
   transform="translate(1.8911308e-4,-21.822736)"
   id="g36">
</g>
<g
   transform="translate(1.8911308e-4,-21.822736)"
   id="g38">
</g>
<g
   transform="translate(1.8911308e-4,-21.822736)"
   id="g40">
</g>
<g
   transform="translate(1.8911308e-4,-21.822736)"
   id="g42">
</g>
<g
   transform="translate(1.8911308e-4,-21.822736)"
   id="g44">
</g>
</svg>
